# xmcd
#
# Track frame offsets: 
#        151
#        6598
#        14069
#        22005
#        31825
#        42261
#        49436
#        57505
#        65294
#        73654
#        82711
#        90151
#        99131
#        105369
#        115125
#        123324
#        135035
#        143552
#        152175
#        159428
#        169893
#        179337
#        187434
#        194383
#        203469
#
# Disc length: 2829 seconds
#
# Revision: 1
# Processed by: cddbd v1.5.2PL0 Copyright (c) Steve Scherf et al.
# Submitted via: ExactAudioCopy v0.95b4
#
DISCID=490b0b19
DTITLE=Various Artist - Sound Traditions: The Best Of Bluegrass Gospel, Vol. 
DTITLE=1
DYEAR=2006
DGENRE=Bluegrass
TTITLE0=Red Smiley and The Bluegrass Cut-Ups - The Old Gospel Ship
TTITLE1=Jim Greer and The Mac-O-Chee Valley Folks - I Saw The Light
TTITLE2=Hylo Brown - This Train
TTITLE3=The Ritchey Brothers - Heavenly Light Is Shining On Me
TTITLE4=Lillie Mae and The Dixie Gospel-Aires - I Like To Hear Them Prea
TTITLE4=ch It
TTITLE5=Red Smiley and The Bluegrass Cut-Ups - When Our Lord Shall Come 
TTITLE5=Again
TTITLE6=Earl Taylor and Jim McCall (with The Stoney Mountain Boys) - Whe
TTITLE6=re You Gonna Hide
TTITLE7=Hylo Brown and The Timberliners - Wait For The Light To Shine
TTITLE8=Jim Greer and The Mac-O-Chee Valley Folks - Paul And Silas
TTITLE9=The Marksmen - Who Will Sing For Me
TTITLE10=Red Smiley and The Bluegrass Cut-Ups - I'll Be No Stranger Ther
TTITLE10=e
TTITLE11=The Ritchey Brothers - God Put A Rainbow In The Clouds
TTITLE12=Hylo Brown and The Timberliners - Working On A Building
TTITLE13=Jim Greer and The Mac-O-Chee Valley Folks - Church In The Wildw
TTITLE13=ood
TTITLE14=Lillie Mae and The Dixie Gospel-Aires - I'm Going To Make Heave
TTITLE14=n My Home
TTITLE15=Red Smiley and The Bluegrass Cut-Ups - Prayer Bells Of Heaven
TTITLE16=Mac Wiseman - Just Over In Gloryland
TTITLE17=Hylo Brown and The Timberliners - Jacob's Ladder
TTITLE18=Rusty York - Where The Soul Of Man Never Dies
TTITLE19=The Marksmen - Holy Manna
TTITLE20=Red Smiley and The Bluegrass Cut-Ups - Take Me In The Life Boat
TTITLE21=Bobby Smith and The Boys From Shilo - Victory
TTITLE22=Hylo Brown and The Timberliners - Lamp Lighting Time In The Val
TTITLE22=ley
TTITLE23=Lillie Mae and The Dixie Gospel-Aires - Jordan
TTITLE24=Don Reno and Bill Harrell (with The Tennessee Cut-Ups) - Keep O
TTITLE24=n The Sunny Side
EXTD=
EXTT0=
EXTT1=
EXTT2=
EXTT3=
EXTT4=
EXTT5=
EXTT6=
EXTT7=
EXTT8=
EXTT9=
EXTT10=
EXTT11=
EXTT12=
EXTT13=
EXTT14=
EXTT15=
EXTT16=
EXTT17=
EXTT18=
EXTT19=
EXTT20=
EXTT21=
EXTT22=
EXTT23=
EXTT24=
PLAYORDER=
